<mxfile host="app.diagrams.net" agent="Mozilla/5.0 (Windows NT 10.0; Win64; x64) AppleWebKit/537.36 (KHTML, like Gecko) Chrome/140.0.0.0 Safari/537.36" version="28.2.5">
  <diagram name="1 oldal" id="ZgWYLyw0eC7pwUYfvE4h">
    <mxGraphModel dx="1426" dy="777" grid="1" gridSize="10" guides="1" tooltips="1" connect="1" arrows="1" fold="1" page="1" pageScale="1" pageWidth="827" pageHeight="1169" math="0" shadow="0">
      <root>
        <mxCell id="0" />
        <mxCell id="1" parent="0" />
        <mxCell id="hVTtG_Qnfkd89vmWAwA_-1" value="Bevételek" style="rounded=0;whiteSpace=wrap;html=1;" vertex="1" parent="1">
          <mxGeometry x="120" y="320" width="70" height="30" as="geometry" />
        </mxCell>
        <mxCell id="hVTtG_Qnfkd89vmWAwA_-8" value="Kiadások" style="rounded=0;whiteSpace=wrap;html=1;" vertex="1" parent="1">
          <mxGeometry x="280" y="320" width="70" height="30" as="geometry" />
        </mxCell>
        <mxCell id="hVTtG_Qnfkd89vmWAwA_-12" style="edgeStyle=orthogonalEdgeStyle;rounded=0;orthogonalLoop=1;jettySize=auto;html=1;exitX=0.25;exitY=1;exitDx=0;exitDy=0;entryX=0.5;entryY=0;entryDx=0;entryDy=0;" edge="1" parent="1" source="hVTtG_Qnfkd89vmWAwA_-9" target="hVTtG_Qnfkd89vmWAwA_-1">
          <mxGeometry relative="1" as="geometry" />
        </mxCell>
        <mxCell id="hVTtG_Qnfkd89vmWAwA_-13" style="edgeStyle=orthogonalEdgeStyle;rounded=0;orthogonalLoop=1;jettySize=auto;html=1;exitX=0.5;exitY=1;exitDx=0;exitDy=0;entryX=1;entryY=0.75;entryDx=0;entryDy=0;" edge="1" parent="1" source="hVTtG_Qnfkd89vmWAwA_-9" target="hVTtG_Qnfkd89vmWAwA_-8">
          <mxGeometry relative="1" as="geometry" />
        </mxCell>
        <mxCell id="hVTtG_Qnfkd89vmWAwA_-14" style="edgeStyle=orthogonalEdgeStyle;rounded=0;orthogonalLoop=1;jettySize=auto;html=1;exitX=0.75;exitY=1;exitDx=0;exitDy=0;entryX=0;entryY=0.75;entryDx=0;entryDy=0;" edge="1" parent="1" source="hVTtG_Qnfkd89vmWAwA_-9" target="hVTtG_Qnfkd89vmWAwA_-11">
          <mxGeometry relative="1" as="geometry" />
        </mxCell>
        <mxCell id="hVTtG_Qnfkd89vmWAwA_-15" style="edgeStyle=orthogonalEdgeStyle;rounded=0;orthogonalLoop=1;jettySize=auto;html=1;exitX=1;exitY=0.75;exitDx=0;exitDy=0;entryX=0.5;entryY=0;entryDx=0;entryDy=0;" edge="1" parent="1" source="hVTtG_Qnfkd89vmWAwA_-9" target="hVTtG_Qnfkd89vmWAwA_-10">
          <mxGeometry relative="1" as="geometry" />
        </mxCell>
        <mxCell id="hVTtG_Qnfkd89vmWAwA_-9" value="Pénzügyi nyilvántartások" style="rounded=0;whiteSpace=wrap;html=1;" vertex="1" parent="1">
          <mxGeometry x="330" y="190" width="120" height="60" as="geometry" />
        </mxCell>
        <mxCell id="hVTtG_Qnfkd89vmWAwA_-10" value="Költségvetés" style="rounded=0;whiteSpace=wrap;html=1;" vertex="1" parent="1">
          <mxGeometry x="600" y="320" width="70" height="30" as="geometry" />
        </mxCell>
        <mxCell id="hVTtG_Qnfkd89vmWAwA_-11" value="Összegzés" style="rounded=0;whiteSpace=wrap;html=1;" vertex="1" parent="1">
          <mxGeometry x="440" y="320" width="70" height="30" as="geometry" />
        </mxCell>
      </root>
    </mxGraphModel>
  </diagram>
</mxfile>
